<?xml version="1.0" encoding="UTF-8" standalone="no"?><!DOCTYPE svg PUBLIC "-//W3C//DTD SVG 1.1//EN" "http://www.w3.org/Graphics/SVG/1.1/DTD/svg11.dtd"><svg width="100%" height="100%" viewBox="0 0 48 48" version="1.1" xmlns="http://www.w3.org/2000/svg" xmlns:xlink="http://www.w3.org/1999/xlink" xml:space="preserve" xmlns:serif="http://www.serif.com/" style="fill-rule:evenodd;clip-rule:evenodd;stroke-linejoin:round;stroke-miterlimit:2;"><path d="M5,43l0,-4.847l26.147,0l0,4.847l-26.147,0Zm27.304,-16.396c-2.975,-0 -5.489,-1.044 -7.541,-3.133c-2.052,-2.088 -3.078,-4.64 -3.078,-7.656c0,-3.017 1.031,-5.573 3.091,-7.67c2.06,-2.097 4.578,-3.145 7.554,-3.145c2.976,0 5.498,1.057 7.567,3.171c2.069,2.114 3.103,4.671 3.103,7.67c-0,3.016 -1.043,5.564 -3.128,7.643c-2.086,2.08 -4.609,3.12 -7.568,3.12Zm-27.304,-2.681l-0,-4.847l12.935,-0c0.205,0.905 0.483,1.758 0.834,2.561c0.35,0.802 0.763,1.564 1.238,2.286l-15.007,-0Zm-0,9.538l-0,-4.846l20.297,-0c0.841,0.631 1.755,1.115 2.742,1.453c0.987,0.337 2.023,0.54 3.108,0.609l0,2.784l-26.147,0Zm25.639,-10.776l3.408,0l-0,-8.249l-3.408,-0l-0,8.249Zm1.678,-10.312c0.475,0 0.882,-0.163 1.221,-0.49c0.339,-0.326 0.509,-0.73 0.509,-1.211c-0,-0.482 -0.166,-0.894 -0.499,-1.238c-0.332,-0.344 -0.742,-0.515 -1.231,-0.515c-0.475,-0 -0.873,0.168 -1.195,0.505c-0.322,0.337 -0.483,0.753 -0.483,1.248c-0,0.481 0.161,0.885 0.483,1.211c0.322,0.327 0.72,0.49 1.195,0.49Z" style="fill-rule:nonzero;"/></svg>