<?xml version="1.0" encoding="UTF-8" standalone="no"?>
<!DOCTYPE svg PUBLIC "-//W3C//DTD SVG 1.1//EN" "http://www.w3.org/Graphics/SVG/1.1/DTD/svg11.dtd">
<svg width="100%" height="100%" viewBox="0 0 40 40" version="1.1" xmlns="http://www.w3.org/2000/svg" xmlns:xlink="http://www.w3.org/1999/xlink" xml:space="preserve" xmlns:serif="http://www.serif.com/" style="fill-rule:evenodd;clip-rule:evenodd;stroke-linejoin:round;stroke-miterlimit:2;">
    <g transform="matrix(0.171962,0,0,0.189405,-29.869,-16.5553)">
        <path d="M255.871,181.613C259.236,169.686 268.997,160.245 280.999,157.16C303.172,151.46 323.892,167.289 325.721,188.638C326.729,212.112 309.078,227.383 290.154,227.383C267.291,227.383 249.155,205.419 255.871,181.613ZM227.672,179.784C224.89,179.784 222.635,182.039 222.635,184.822L222.635,198.55C222.635,201.332 224.89,203.587 227.672,203.587L233.634,203.945C239.712,204.311 240.116,209.565 242.621,214.722C247.153,224.054 230.756,227.771 237.555,234.569L247.262,244.276C249.229,246.243 252.418,246.243 254.386,244.276C264.494,235.313 263.246,238.26 272.842,241.586C282.653,244.988 273.637,259.197 283.281,259.197L297.009,259.197C299.792,259.197 302.046,256.94 302.046,254.159L302.404,248.197C302.77,242.119 308.025,241.715 313.182,239.21C318.499,236.627 321.718,240.563 325.904,244.276C327.872,246.243 331.062,246.243 333.028,244.276L342.736,234.569C344.703,232.602 344.703,229.412 342.736,227.445L338.772,222.975C334.734,218.421 338.161,214.428 340.046,208.99C343.447,199.178 357.655,208.194 357.655,198.55L357.655,184.822C357.655,182.039 355.4,179.784 352.618,179.784L346.657,179.426C340.578,179.061 340.174,173.805 337.67,168.649C336.343,165.917 336.757,162.669 338.772,160.396L342.736,155.926C344.703,153.959 344.703,150.77 342.736,148.803L333.028,139.095C331.062,137.127 327.872,137.127 325.904,139.095C315.806,148.049 317.069,145.119 307.449,141.785C297.639,138.385 306.65,124.175 297.009,124.175L283.281,124.175C273.616,124.175 282.685,138.373 272.841,141.785C267.35,143.688 263.398,147.086 258.855,143.058L254.386,139.095C252.418,137.127 249.229,137.127 247.262,139.095L237.555,148.803C230.717,155.639 247.181,159.259 242.621,168.649C238.18,177.791 241.131,178.976 227.672,179.784Z" style="fill-rule:nonzero;"/>
    </g>
    <g transform="matrix(0.171962,0,0,0.189405,-29.869,-16.5553)">
        <path d="M382.678,201.189C380.49,225.909 368.808,248.293 349.785,264.224C299.133,306.635 221.863,283.824 201.752,221.626L211.233,226.755C214.314,228.418 218.17,227.266 219.833,224.192C221.505,221.101 220.351,217.256 217.271,215.59C216.803,215.337 195.089,203.563 194.591,203.373C191.545,202.034 188.053,203.228 186.477,206.145L174.469,228.336C172.17,232.586 175.28,237.703 180.045,237.703C184.79,237.703 185.761,234.137 189.943,226.408C204.312,269.761 244.424,298.594 290.222,298.594C344.377,298.594 390.542,256.301 395.32,202.311C396.059,193.958 383.415,192.867 382.678,201.189Z" style="fill-rule:nonzero;"/>
    </g>
    <g transform="matrix(0.171962,0,0,0.189405,-29.869,-16.5553)">
        <path d="M402.976,147.33L402.975,147.328C399.895,145.665 396.037,146.814 394.375,149.892L389.864,158.229C365.372,87.94 278.492,65.038 222.356,112.05C200.732,130.158 187.455,155.602 184.969,183.694C184.233,192.031 196.868,193.201 197.612,184.815C199.799,160.098 211.481,137.711 230.504,121.781C281.01,79.489 356.826,102.267 377.88,162.441C368.509,157.372 367.199,156.045 363.946,157.011C358.511,158.624 357.803,166.012 362.734,168.675C384.417,180.409 387.003,182.458 389.29,181.27C393.014,180.621 392.753,179.559 405.538,155.932C407.21,152.84 406.055,148.995 402.976,147.33Z" style="fill-rule:nonzero;"/>
    </g>
</svg>
