<?xml version="1.0" encoding="UTF-8" standalone="no"?><!DOCTYPE svg PUBLIC "-//W3C//DTD SVG 1.1//EN" "http://www.w3.org/Graphics/SVG/1.1/DTD/svg11.dtd"><svg width="100%" height="100%" viewBox="0 0 40 40" version="1.1" xmlns="http://www.w3.org/2000/svg" xmlns:xlink="http://www.w3.org/1999/xlink" xml:space="preserve" xmlns:serif="http://www.serif.com/" style="fill-rule:evenodd;clip-rule:evenodd;stroke-linejoin:round;stroke-miterlimit:2;"><path d="M6,32l0,-14l4,0l0,14l-4,0Zm12,0l0,-14l4,0l0,14l-4,0Zm-18,8l0,-4l40,0l0,4l-40,0Zm30,-8l0,-14l4,0l0,14l-4,0Zm-30,-18l0,-4l20,-10l20,10l0,4l-40,0Zm8.9,-4l22.2,0l-22.2,0Zm-0,0l22.2,0l-11.1,-5.5l-11.1,5.5Z" style="fill-rule:nonzero;"/></svg>