<?xml version="1.0" encoding="UTF-8" standalone="no"?><!DOCTYPE svg PUBLIC "-//W3C//DTD SVG 1.1//EN" "http://www.w3.org/Graphics/SVG/1.1/DTD/svg11.dtd"><svg width="100%" height="100%" viewBox="0 0 48 48" version="1.1" xmlns="http://www.w3.org/2000/svg" xmlns:xlink="http://www.w3.org/1999/xlink" xml:space="preserve" xmlns:serif="http://www.serif.com/" style="fill-rule:evenodd;clip-rule:evenodd;stroke-linejoin:round;stroke-miterlimit:2;"><path d="M43.361,19.349c0.19,0.759 0.348,1.526 0.474,2.301c0.127,0.775 0.19,1.558 0.19,2.349c0,2.783 -0.514,5.409 -1.542,7.876c-1.028,2.468 -2.444,4.595 -4.247,6.382c-1.803,1.788 -3.922,3.187 -6.358,4.2c-2.436,1.012 -5.061,1.518 -7.877,1.518c-2.783,-0 -5.409,-0.506 -7.876,-1.518c-2.468,-1.013 -4.595,-2.412 -6.382,-4.2c-1.788,-1.787 -3.187,-3.914 -4.2,-6.382c-1.012,-2.467 -1.518,-5.093 -1.518,-7.876c0,-2.816 0.506,-5.441 1.518,-7.877c1.013,-2.436 2.412,-4.555 4.2,-6.358c1.787,-1.803 3.914,-3.219 6.382,-4.247c2.467,-1.028 5.093,-1.542 7.876,-1.542c1.772,0 3.472,0.253 5.101,0.759c1.629,0.506 3.171,1.139 4.626,1.898c0.538,0.222 0.886,0.649 1.044,1.281c0.158,0.633 0.079,1.218 -0.237,1.756c-0.316,0.443 -0.751,0.743 -1.305,0.901c-0.553,0.159 -1.067,0.143 -1.542,-0.047c-1.107,-0.696 -2.309,-1.234 -3.606,-1.613c-1.297,-0.38 -2.657,-0.57 -4.081,-0.57c-4.428,0 -8.145,1.495 -11.15,4.484c-3.006,2.99 -4.508,6.714 -4.508,11.175c-0,4.46 1.502,8.185 4.508,11.174c3.005,2.989 6.722,4.484 11.15,4.484c4.524,0 8.257,-1.51 11.198,-4.531c2.942,-3.021 4.413,-6.762 4.413,-11.222c0,-0.57 -0.039,-1.131 -0.118,-1.685c-0.08,-0.553 -0.182,-1.067 -0.309,-1.542c-0.063,-0.791 0.063,-1.415 0.38,-1.874c0.316,-0.459 0.711,-0.783 1.186,-0.973c0.474,-0.126 0.996,-0.055 1.566,0.214c0.569,0.269 0.917,0.704 1.044,1.305Zm-23.725,12.337l-5.314,-5.362c-0.412,-0.348 -0.617,-0.815 -0.617,-1.4c-0,-0.585 0.221,-1.099 0.664,-1.542c0.411,-0.38 0.909,-0.57 1.495,-0.57c0.585,0 1.099,0.19 1.542,0.57l3.701,3.796l18.41,-18.458c0.412,-0.38 0.91,-0.577 1.495,-0.593c0.585,-0.016 1.099,0.182 1.542,0.593c0.411,0.474 0.617,0.996 0.617,1.566c-0,0.569 -0.206,1.075 -0.617,1.518l-19.929,19.882c-0.411,0.442 -0.925,0.664 -1.542,0.664c-0.617,-0 -1.099,-0.222 -1.447,-0.664Z" style="fill-rule:nonzero;"/></svg>