<?xml version="1.0" encoding="UTF-8" standalone="no"?><!DOCTYPE svg PUBLIC "-//W3C//DTD SVG 1.1//EN" "http://www.w3.org/Graphics/SVG/1.1/DTD/svg11.dtd"><svg width="100%" height="100%" viewBox="0 0 48 48" version="1.1" xmlns="http://www.w3.org/2000/svg" xmlns:xlink="http://www.w3.org/1999/xlink" xml:space="preserve" xmlns:serif="http://www.serif.com/" style="fill-rule:evenodd;clip-rule:evenodd;stroke-linejoin:round;stroke-miterlimit:2;"><path d="M23,40.75l0,-4.75l11,-11l4.75,4.75l-11,11l-4.75,0Zm-18,-9.95l0,-4.75l17.3,0l0,4.75l-17.3,0Zm35.9,-3.2l-4.75,-4.75l1.45,-1.45c0.433,-0.433 0.983,-0.65 1.65,-0.65c0.667,0 1.217,0.217 1.65,0.65l1.45,1.45c0.433,0.433 0.65,0.983 0.65,1.65c0,0.667 -0.217,1.217 -0.65,1.65l-1.45,1.45Zm-35.9,-6.25l0,-4.7l25.2,0l0,4.7l-25.2,0Zm0,-9.4l0,-4.7l25.2,0l0,4.7l-25.2,0Z" style="fill-rule:nonzero;"/></svg>