<?xml version="1.0" encoding="UTF-8" standalone="no"?><!DOCTYPE svg PUBLIC "-//W3C//DTD SVG 1.1//EN" "http://www.w3.org/Graphics/SVG/1.1/DTD/svg11.dtd"><svg width="100%" height="100%" viewBox="0 0 48 48" version="1.1" xmlns="http://www.w3.org/2000/svg" xmlns:xlink="http://www.w3.org/1999/xlink" xml:space="preserve" xmlns:serif="http://www.serif.com/" style="fill-rule:evenodd;clip-rule:evenodd;stroke-linejoin:round;stroke-miterlimit:2;"><path d="M39.75,43.125l-13.45,-13.4c-0.967,0.767 -2.108,1.367 -3.425,1.8c-1.317,0.433 -2.742,0.65 -4.275,0.65c-3.833,-0 -7.083,-1.333 -9.75,-4c-2.667,-2.667 -4,-5.883 -4,-9.65c0,-3.767 1.333,-6.983 4,-9.65c2.667,-2.667 5.9,-4 9.7,-4c3.767,-0 6.975,1.333 9.625,4c2.65,2.667 3.975,5.883 3.975,9.65c0,1.5 -0.208,2.892 -0.625,4.175c-0.417,1.283 -1.042,2.492 -1.875,3.625l13.5,13.4l-3.4,3.4Zm-21.2,-15.65c2.5,-0 4.608,-0.875 6.325,-2.625c1.717,-1.75 2.575,-3.858 2.575,-6.325c0,-2.5 -0.858,-4.617 -2.575,-6.35c-1.717,-1.733 -3.825,-2.6 -6.325,-2.6c-2.5,-0 -4.625,0.867 -6.375,2.6c-1.75,1.733 -2.625,3.85 -2.625,6.35c0,2.467 0.875,4.575 2.625,6.325c1.75,1.75 3.875,2.625 6.375,2.625Z" style="fill-rule:nonzero;"/></svg>