<?xml version="1.0" encoding="UTF-8" standalone="no"?><!DOCTYPE svg PUBLIC "-//W3C//DTD SVG 1.1//EN" "http://www.w3.org/Graphics/SVG/1.1/DTD/svg11.dtd"><svg width="100%" height="100%" viewBox="0 0 48 48" version="1.1" xmlns="http://www.w3.org/2000/svg" xmlns:xlink="http://www.w3.org/1999/xlink" xml:space="preserve" xmlns:serif="http://www.serif.com/" style="fill-rule:evenodd;clip-rule:evenodd;stroke-linejoin:round;stroke-miterlimit:2;"><path d="M5.15,43.6l0,-5l4.55,-4.55l0,9.55l-4.55,-0Zm8.3,-0l0,-13.05l4.55,-4.55l0,17.6l-4.55,-0Zm8.3,-0l0,-17.6l4.55,4.55l0,13.05l-4.55,-0Zm8.3,-0l0,-13.15l4.55,-4.5l0,17.65l-4.55,-0Zm8.3,-0l0,-21.2l4.5,-4.5l0,25.7l-4.5,-0Zm-33.2,-10.85l0,-6.7l14.85,-14.75l8,8l14.85,-14.9l0,6.65l-14.85,14.95l-8,-8l-14.85,14.75Z" style="fill-rule:nonzero;"/></svg>