<?xml version="1.0" encoding="UTF-8" standalone="no"?><!DOCTYPE svg PUBLIC "-//W3C//DTD SVG 1.1//EN" "http://www.w3.org/Graphics/SVG/1.1/DTD/svg11.dtd"><svg width="100%" height="100%" viewBox="0 0 48 48" version="1.1" xmlns="http://www.w3.org/2000/svg" xmlns:xlink="http://www.w3.org/1999/xlink" xml:space="preserve" xmlns:serif="http://www.serif.com/" style="fill-rule:evenodd;clip-rule:evenodd;stroke-linejoin:round;stroke-miterlimit:2;"><path d="M24,23.675c1.033,0 1.925,-0.375 2.675,-1.125c0.75,-0.75 1.125,-1.642 1.125,-2.675c0,-1.033 -0.375,-1.925 -1.125,-2.675c-0.75,-0.75 -1.642,-1.125 -2.675,-1.125c-1.033,0 -1.925,0.375 -2.675,1.125c-0.75,0.75 -1.125,1.642 -1.125,2.675c0,1.033 0.375,1.925 1.125,2.675c0.75,0.75 1.642,1.125 2.675,1.125Zm0,21.3c-5.633,-4.8 -9.85,-9.25 -12.65,-13.35c-2.8,-4.1 -4.2,-7.883 -4.2,-11.35c0,-5.267 1.692,-9.458 5.075,-12.575c3.383,-3.117 7.308,-4.675 11.775,-4.675c4.467,0 8.392,1.558 11.775,4.675c3.383,3.117 5.075,7.308 5.075,12.575c0,3.467 -1.4,7.25 -4.2,11.35c-2.8,4.1 -7.017,8.55 -12.65,13.35Z" style="fill-rule:nonzero;"/></svg>