<?xml version="1.0" encoding="UTF-8" standalone="no"?><!DOCTYPE svg PUBLIC "-//W3C//DTD SVG 1.1//EN" "http://www.w3.org/Graphics/SVG/1.1/DTD/svg11.dtd"><svg width="100%" height="100%" viewBox="0 0 48 48" version="1.1" xmlns="http://www.w3.org/2000/svg" xmlns:xlink="http://www.w3.org/1999/xlink" xml:space="preserve" xmlns:serif="http://www.serif.com/" style="fill-rule:evenodd;clip-rule:evenodd;stroke-linejoin:round;stroke-miterlimit:2;"><path d="M23.85,41.25c-4.767,0 -8.833,-1.683 -12.2,-5.05c-3.367,-3.367 -5.05,-7.433 -5.05,-12.2c-0,-4.767 1.683,-8.842 5.05,-12.225c3.367,-3.383 7.433,-5.075 12.2,-5.075c3.033,0 5.708,0.608 8.025,1.825c2.317,1.217 4.308,2.925 5.975,5.125l0,-6.95l3.6,0l0,14.55l-14.6,0l0,-3.55l8.2,0c-1.3,-1.867 -2.867,-3.375 -4.7,-4.525c-1.833,-1.15 -4,-1.725 -6.5,-1.725c-3.5,0 -6.467,1.217 -8.9,3.65c-2.433,2.433 -3.65,5.4 -3.65,8.9c0,3.5 1.217,6.467 3.65,8.9c2.433,2.433 5.4,3.65 8.9,3.65c2.6,0 5.008,-0.75 7.225,-2.25c2.217,-1.5 3.792,-3.483 4.725,-5.95l4.85,0c-1,3.833 -3.058,6.942 -6.175,9.325c-3.117,2.383 -6.658,3.575 -10.625,3.575Z" style="fill-rule:nonzero;"/></svg>