<?xml version="1.0" encoding="UTF-8" standalone="no"?><!DOCTYPE svg PUBLIC "-//W3C//DTD SVG 1.1//EN" "http://www.w3.org/Graphics/SVG/1.1/DTD/svg11.dtd"><svg width="100%" height="100%" viewBox="0 0 48 48" version="1.1" xmlns="http://www.w3.org/2000/svg" xmlns:xlink="http://www.w3.org/1999/xlink" xml:space="preserve" xmlns:serif="http://www.serif.com/" style="fill-rule:evenodd;clip-rule:evenodd;stroke-linejoin:round;stroke-miterlimit:2;"><path d="M5.387,42.362l0,-4.575l25.575,0l0,4.575l-25.575,0Zm26.766,-15.9c-2.91,0 -5.366,-1.005 -7.366,-3.017c-2,-2.011 -3,-4.469 -3,-7.375c0,-2.905 1.006,-5.37 3.018,-7.395c2.011,-2.025 4.469,-3.038 7.375,-3.038c2.905,0 5.37,1.02 7.395,3.06c2.025,2.04 3.037,4.506 3.037,7.4c0,2.91 -1.019,5.365 -3.059,7.365c-2.04,2 -4.506,3 -7.4,3Zm-26.766,-2.6l0,-4.575l12.86,0c0.204,0.861 0.475,1.668 0.811,2.421c0.336,0.753 0.738,1.471 1.204,2.154l-14.875,0Zm0,9.25l0,-4.575l20.425,0c0.744,0.546 1.55,0.957 2.42,1.235c0.87,0.277 1.78,0.449 2.73,0.515l0,2.825l-25.575,0Zm25.125,-10.375l3.35,0l0,-8l-3.35,0l0,8Zm1.65,-10c0.467,0 0.867,-0.158 1.2,-0.475c0.334,-0.316 0.5,-0.708 0.5,-1.175c0,-0.466 -0.163,-0.866 -0.49,-1.2c-0.326,-0.333 -0.73,-0.5 -1.21,-0.5c-0.466,0 -0.858,0.164 -1.175,0.49c-0.316,0.327 -0.475,0.73 -0.475,1.21c0,0.467 0.159,0.859 0.475,1.175c0.317,0.317 0.709,0.475 1.175,0.475Z" style="fill-rule:nonzero;"/></svg>