<?xml version="1.0" encoding="UTF-8" standalone="no"?><!DOCTYPE svg PUBLIC "-//W3C//DTD SVG 1.1//EN" "http://www.w3.org/Graphics/SVG/1.1/DTD/svg11.dtd"><svg width="100%" height="100%" viewBox="0 0 48 48" version="1.1" xmlns="http://www.w3.org/2000/svg" xmlns:xlink="http://www.w3.org/1999/xlink" xml:space="preserve" xmlns:serif="http://www.serif.com/" style="fill-rule:evenodd;clip-rule:evenodd;stroke-linejoin:round;stroke-miterlimit:2;"><path d="M34.891,41.954c0.711,-0.774 1.08,-1.651 1.107,-2.631c0.028,-0.981 -0.341,-1.832 -1.107,-2.554l-13.456,-12.692l13.538,-12.769c0.711,-0.67 1.053,-1.535 1.025,-2.592c-0.027,-1.058 -0.396,-1.922 -1.107,-2.593c-0.821,-0.774 -1.737,-1.148 -2.749,-1.122c-1.012,0.026 -1.9,0.4 -2.666,1.122l-16.327,15.401c-0.383,0.361 -0.67,0.761 -0.862,1.199c-0.191,0.439 -0.287,0.89 -0.287,1.354c0,0.465 0.096,0.916 0.287,1.355c0.192,0.438 0.479,0.838 0.862,1.199l16.245,15.323c0.766,0.722 1.668,1.07 2.707,1.045c1.04,-0.026 1.969,-0.374 2.79,-1.045Z" style="fill-rule:nonzero;"/></svg>