<?xml version="1.0" encoding="UTF-8" standalone="no"?><!DOCTYPE svg PUBLIC "-//W3C//DTD SVG 1.1//EN" "http://www.w3.org/Graphics/SVG/1.1/DTD/svg11.dtd"><svg width="100%" height="100%" viewBox="0 0 48 48" version="1.1" xmlns="http://www.w3.org/2000/svg" xmlns:xlink="http://www.w3.org/1999/xlink" xml:space="preserve" xmlns:serif="http://www.serif.com/" style="fill-rule:evenodd;clip-rule:evenodd;stroke-linejoin:round;stroke-miterlimit:2;"><path d="M13.301,43.163c-0.533,-0.567 -0.808,-1.233 -0.825,-2c-0.016,-0.767 0.259,-1.433 0.825,-2l15.15,-15.15l-15.15,-15.15c-0.533,-0.533 -0.816,-1.192 -0.85,-1.975c-0.033,-0.783 0.234,-1.458 0.8,-2.025c0.534,-0.567 1.2,-0.858 2,-0.875c0.8,-0.017 1.467,0.258 2,0.825l17.6,17.55c0.234,0.233 0.409,0.492 0.525,0.775c0.117,0.283 0.175,0.575 0.175,0.875c0,0.3 -0.058,0.592 -0.175,0.875c-0.116,0.283 -0.291,0.542 -0.525,0.775l-17.55,17.55c-0.533,0.533 -1.191,0.8 -1.975,0.8c-0.783,-0 -1.458,-0.283 -2.025,-0.85Z" style="fill-rule:nonzero;"/></svg>