<?xml version="1.0" encoding="UTF-8" standalone="no"?><!DOCTYPE svg PUBLIC "-//W3C//DTD SVG 1.1//EN" "http://www.w3.org/Graphics/SVG/1.1/DTD/svg11.dtd"><svg width="100%" height="100%" viewBox="0 0 48 48" version="1.1" xmlns="http://www.w3.org/2000/svg" xmlns:xlink="http://www.w3.org/1999/xlink" xml:space="preserve" xmlns:serif="http://www.serif.com/" style="fill-rule:evenodd;clip-rule:evenodd;stroke-linejoin:round;stroke-miterlimit:2;"><path d="M47.203,18.449c0.228,0.911 0.418,1.831 0.569,2.761c0.152,0.93 0.228,1.87 0.228,2.819c-0,3.339 -0.617,6.491 -1.85,9.451c-1.234,2.962 -2.933,5.514 -5.097,7.658c-2.163,2.146 -4.706,3.825 -7.629,5.04c-2.924,1.215 -6.074,1.822 -9.453,1.822c-3.339,-0 -6.491,-0.607 -9.451,-1.822c-2.962,-1.215 -5.514,-2.894 -7.658,-5.04c-2.146,-2.144 -3.825,-4.696 -5.04,-7.658c-1.215,-2.96 -1.822,-6.112 -1.822,-9.451c-0,-3.379 0.607,-6.529 1.822,-9.453c1.215,-2.923 2.894,-5.466 5.04,-7.629c2.144,-2.164 4.696,-3.863 7.658,-5.097c2.96,-1.233 6.112,-1.85 9.451,-1.85c2.127,-0 4.167,0.304 6.121,0.911c1.955,0.607 3.806,1.367 5.552,2.277c0.645,0.267 1.063,0.779 1.252,1.538c0.19,0.759 0.095,1.461 -0.284,2.107c-0.379,0.531 -0.901,0.891 -1.566,1.081c-0.664,0.191 -1.28,0.172 -1.85,-0.056c-1.329,-0.836 -2.771,-1.481 -4.328,-1.936c-1.556,-0.456 -3.188,-0.684 -4.897,-0.684c-5.313,-0 -9.774,1.794 -13.38,5.381c-3.607,3.588 -5.409,8.057 -5.409,13.41c-0,5.352 1.802,9.822 5.409,13.409c3.606,3.586 8.067,5.38 13.38,5.38c5.429,0 9.909,-1.812 13.438,-5.437c3.53,-3.625 5.295,-8.114 5.295,-13.466c0,-0.684 -0.046,-1.357 -0.141,-2.022c-0.096,-0.664 -0.219,-1.281 -0.371,-1.851c-0.076,-0.949 0.076,-1.698 0.456,-2.248c0.379,-0.551 0.853,-0.94 1.423,-1.168c0.569,-0.151 1.195,-0.066 1.879,0.257c0.683,0.323 1.101,0.845 1.253,1.566Zm-28.47,14.804l-6.377,-6.434c-0.494,-0.418 -0.74,-0.978 -0.74,-1.68c-0,-0.702 0.265,-1.319 0.797,-1.851c0.493,-0.456 1.091,-0.684 1.794,-0.684c0.702,0 1.319,0.228 1.85,0.684l4.441,4.556l22.092,-22.15c0.495,-0.456 1.092,-0.692 1.794,-0.712c0.702,-0.019 1.319,0.219 1.851,0.712c0.493,0.569 0.74,1.195 0.74,1.879c0,0.683 -0.247,1.29 -0.74,1.822l-23.915,23.858c-0.493,0.531 -1.11,0.797 -1.85,0.797c-0.741,-0 -1.319,-0.266 -1.737,-0.797Z" style="fill-rule:nonzero;"/></svg>