<?xml version="1.0" encoding="UTF-8" standalone="no"?><!DOCTYPE svg PUBLIC "-//W3C//DTD SVG 1.1//EN" "http://www.w3.org/Graphics/SVG/1.1/DTD/svg11.dtd"><svg width="100%" height="100%" viewBox="0 0 40 40" version="1.1" xmlns="http://www.w3.org/2000/svg" xmlns:xlink="http://www.w3.org/1999/xlink" xml:space="preserve" xmlns:serif="http://www.serif.com/" style="fill-rule:evenodd;clip-rule:evenodd;stroke-linejoin:round;stroke-miterlimit:2;"><path d="M18.947,38l0,-5.104l11.579,-11.821l5,5.104l-11.579,11.821l-5,0Zm-18.947,-10.693l0,-5.104l18.211,-0l-0,5.104l-18.211,0Zm37.789,-3.438l-5,-5.105l1.527,-1.558c0.456,-0.465 1.035,-0.699 1.737,-0.699c0.702,0 1.281,0.234 1.736,0.699l1.527,1.558c0.456,0.465 0.684,1.057 0.684,1.773c0,0.717 -0.228,1.308 -0.684,1.773l-1.527,1.559Zm-37.789,-6.717l0,-5.051l26.526,0l0,5.051l-26.526,0Zm0,-10.101l0,-5.051l26.526,0l0,5.051l-26.526,-0Z" style="fill-rule:nonzero;"/></svg>