<?xml version="1.0" encoding="UTF-8" standalone="no"?><!DOCTYPE svg PUBLIC "-//W3C//DTD SVG 1.1//EN" "http://www.w3.org/Graphics/SVG/1.1/DTD/svg11.dtd"><svg width="100%" height="100%" viewBox="0 0 40 40" version="1.1" xmlns="http://www.w3.org/2000/svg" xmlns:xlink="http://www.w3.org/1999/xlink" xml:space="preserve" xmlns:serif="http://www.serif.com/" style="fill-rule:evenodd;clip-rule:evenodd;stroke-linejoin:round;stroke-miterlimit:2;"><path d="M5.171,40c-1.449,0 -2.674,-0.499 -3.673,-1.498c-0.999,-0.999 -1.498,-2.224 -1.498,-3.673l-0,-32.202c-0,-1.136 0.529,-1.93 1.587,-2.38c1.057,-0.451 1.978,-0.284 2.761,0.499l5.289,5.289l-3.173,3.173l1.645,1.645l3.174,-3.173l6.111,6.112l-3.173,3.173l1.645,1.645l3.173,-3.173l6.112,6.111l-3.174,3.174l1.646,1.645l3.173,-3.173l6.111,6.111l-3.173,3.173l1.646,1.646l3.173,-3.174l4.701,4.702c0.783,0.783 0.95,1.704 0.499,2.761c-0.45,1.058 -1.244,1.587 -2.38,1.587l-32.202,-0Zm1.881,-7.052l19.509,0l-19.509,-19.509l-0,19.509Z" style="fill-rule:nonzero;"/></svg>