<?xml version="1.0" encoding="UTF-8" standalone="no"?><!DOCTYPE svg PUBLIC "-//W3C//DTD SVG 1.1//EN" "http://www.w3.org/Graphics/SVG/1.1/DTD/svg11.dtd"><svg width="100%" height="100%" viewBox="0 0 48 48" version="1.1" xmlns="http://www.w3.org/2000/svg" xmlns:xlink="http://www.w3.org/1999/xlink" xml:space="preserve" xmlns:serif="http://www.serif.com/" style="fill-rule:evenodd;clip-rule:evenodd;stroke-linejoin:round;stroke-miterlimit:2;"><path d="M48,10.159l0,33.688c0,1.152 -0.404,2.133 -1.212,2.941c-0.809,0.808 -1.789,1.212 -2.941,1.212l-39.693,-0c-1.153,-0 -2.133,-0.404 -2.942,-1.212c-0.808,-0.809 -1.212,-1.789 -1.212,-2.941l0,-39.694c0,-1.152 0.404,-2.132 1.212,-2.941c0.809,-0.808 1.789,-1.212 2.942,-1.212l33.687,0l10.159,10.159Zm-2.308,1.044l-8.895,-8.895l-32.643,-0c-0.538,-0 -0.981,0.173 -1.327,0.519c-0.346,0.346 -0.519,0.788 -0.519,1.326l-0,39.694c-0,0.537 0.173,0.98 0.519,1.326c0.346,0.346 0.789,0.519 1.327,0.519l39.693,0c0.538,0 0.98,-0.173 1.326,-0.519c0.346,-0.346 0.519,-0.789 0.519,-1.326l0,-32.644Zm-21.71,26.211c1.492,-0 2.774,-0.53 3.845,-1.59c1.072,-1.06 1.608,-2.335 1.608,-3.827c-0,-1.493 -0.53,-2.774 -1.59,-3.846c-1.06,-1.071 -2.335,-1.607 -3.827,-1.607c-1.492,-0 -2.774,0.53 -3.845,1.59c-1.072,1.059 -1.607,2.335 -1.607,3.827c-0,1.492 0.529,2.774 1.589,3.846c1.06,1.071 2.336,1.607 3.827,1.607Zm-15.91,-20.925l22.176,-0l0,-8.418l-22.176,0l-0,8.418Zm-5.764,-14.181l-0,43.384l-0,-43.384Z" style="fill-rule:nonzero;"/></svg>