<?xml version="1.0" encoding="UTF-8" standalone="no"?><!DOCTYPE svg PUBLIC "-//W3C//DTD SVG 1.1//EN" "http://www.w3.org/Graphics/SVG/1.1/DTD/svg11.dtd"><svg width="100%" height="100%" viewBox="0 0 512 512" version="1.1" xmlns="http://www.w3.org/2000/svg" xmlns:xlink="http://www.w3.org/1999/xlink" xml:space="preserve" xmlns:serif="http://www.serif.com/" style="fill-rule:evenodd;clip-rule:evenodd;stroke-linecap:round;stroke-linejoin:round;stroke-miterlimit:1.5;"><rect x="0" y="0" width="512" height="512" style="fill:#112469;"/><path d="M96.515,400.298c-21.407,-31.127 -33.942,-68.821 -33.942,-109.419c0,-106.755 86.672,-193.426 193.427,-193.426c106.755,0 193.427,86.671 193.427,193.426c0,40.742 -12.624,78.56 -34.17,109.75" style="fill:none;stroke:#0ec6ff;stroke-width:22px;"/><path d="M139.977,331.778c-4.705,-13.049 -7.269,-27.116 -7.269,-41.778c0,-68.047 55.245,-123.292 123.292,-123.292c68.047,0 123.292,55.245 123.292,123.292c0,14.244 -2.42,27.926 -6.872,40.659" style="fill:none;stroke:#d8d9e1;stroke-width:6.5px;"/><path d="M96.47,400l80.182,-131l79.937,131l80.054,-131.021l75.536,131.021" style="fill:none;stroke:#0ec6ff;stroke-width:22px;stroke-linejoin:miter;"/><path d="M163.335,400l93.235,-155.359l94.783,155.359" style="fill:none;stroke:#d8d9e1;stroke-width:22px;stroke-linecap:square;stroke-linejoin:miter;stroke-miterlimit:1;"/></svg>